<mxfile host="65bd71144e">
    <diagram id="tNU9srG1WP442E_0sJ9E" name="Page-1">
        <mxGraphModel dx="838" dy="353" grid="1" gridSize="10" guides="1" tooltips="1" connect="1" arrows="1" fold="1" page="0" pageScale="1" pageWidth="827" pageHeight="1169" background="#000000" math="0" shadow="0">
            <root>
                <mxCell id="0"/>
                <mxCell id="1" parent="0"/>
                <mxCell id="lBhMCSIljEOEJ2BY_cxG-8" style="edgeStyle=orthogonalEdgeStyle;rounded=0;orthogonalLoop=1;jettySize=auto;html=1;entryX=0.5;entryY=0;entryDx=0;entryDy=0;startArrow=ERmandOne;startFill=0;endArrow=ERzeroToMany;endFill=0;" parent="1" source="lBhMCSIljEOEJ2BY_cxG-1" target="lBhMCSIljEOEJ2BY_cxG-2" edge="1">
                    <mxGeometry relative="1" as="geometry"/>
                </mxCell>
                <mxCell id="lBhMCSIljEOEJ2BY_cxG-15" style="edgeStyle=orthogonalEdgeStyle;rounded=0;orthogonalLoop=1;jettySize=auto;html=1;startArrow=ERoneToMany;startFill=0;endArrow=ERoneToMany;endFill=0;" parent="1" source="lBhMCSIljEOEJ2BY_cxG-1" target="lBhMCSIljEOEJ2BY_cxG-14" edge="1">
                    <mxGeometry relative="1" as="geometry"/>
                </mxCell>
                <mxCell id="lBhMCSIljEOEJ2BY_cxG-1" value="FOODITEM&lt;br&gt;&lt;u&gt;Name&lt;/u&gt;&lt;br&gt;Description&lt;br&gt;BasePrice" style="rounded=0;whiteSpace=wrap;html=1;" parent="1" vertex="1">
                    <mxGeometry x="375" y="293.5" width="120" height="113" as="geometry"/>
                </mxCell>
                <mxCell id="lBhMCSIljEOEJ2BY_cxG-4" value="" style="group" parent="1" vertex="1" connectable="0">
                    <mxGeometry x="372" y="497" width="126" height="159" as="geometry"/>
                </mxCell>
                <mxCell id="lBhMCSIljEOEJ2BY_cxG-3" value="" style="rounded=0;whiteSpace=wrap;html=1;strokeColor=default;strokeWidth=1;" parent="lBhMCSIljEOEJ2BY_cxG-4" vertex="1">
                    <mxGeometry width="126" height="159" as="geometry"/>
                </mxCell>
                <mxCell id="lBhMCSIljEOEJ2BY_cxG-2" value="OPTIONS&lt;br&gt;&lt;u&gt;Name&lt;br&gt;&lt;/u&gt;MinNum&lt;br&gt;MaxNum" style="rounded=0;whiteSpace=wrap;html=1;strokeColor=default;perimeterSpacing=0;strokeWidth=1;" parent="lBhMCSIljEOEJ2BY_cxG-4" vertex="1">
                    <mxGeometry x="3" y="3" width="120" height="152" as="geometry"/>
                </mxCell>
                <mxCell id="lBhMCSIljEOEJ2BY_cxG-7" value="" style="endArrow=none;html=1;rounded=0;" parent="lBhMCSIljEOEJ2BY_cxG-4" edge="1">
                    <mxGeometry width="50" height="50" relative="1" as="geometry">
                        <mxPoint x="46" y="79" as="sourcePoint"/>
                        <mxPoint x="80" y="79" as="targetPoint"/>
                    </mxGeometry>
                </mxCell>
                <mxCell id="lBhMCSIljEOEJ2BY_cxG-9" value="" style="group" parent="1" vertex="1" connectable="0">
                    <mxGeometry x="579" y="497" width="126" height="159" as="geometry"/>
                </mxCell>
                <mxCell id="lBhMCSIljEOEJ2BY_cxG-10" value="" style="rounded=0;whiteSpace=wrap;html=1;strokeColor=default;strokeWidth=1;" parent="lBhMCSIljEOEJ2BY_cxG-9" vertex="1">
                    <mxGeometry width="126" height="159" as="geometry"/>
                </mxCell>
                <mxCell id="lBhMCSIljEOEJ2BY_cxG-11" value="SUBOPTIONS&lt;br&gt;&lt;u&gt;Name&lt;/u&gt;&lt;br&gt;Available&lt;br&gt;Price" style="rounded=0;whiteSpace=wrap;html=1;strokeColor=default;perimeterSpacing=0;strokeWidth=1;" parent="lBhMCSIljEOEJ2BY_cxG-9" vertex="1">
                    <mxGeometry x="3" y="3" width="120" height="152" as="geometry"/>
                </mxCell>
                <mxCell id="lBhMCSIljEOEJ2BY_cxG-12" value="" style="endArrow=none;html=1;rounded=0;" parent="lBhMCSIljEOEJ2BY_cxG-9" edge="1">
                    <mxGeometry width="50" height="50" relative="1" as="geometry">
                        <mxPoint x="46" y="79" as="sourcePoint"/>
                        <mxPoint x="80" y="79" as="targetPoint"/>
                    </mxGeometry>
                </mxCell>
                <mxCell id="lBhMCSIljEOEJ2BY_cxG-13" style="edgeStyle=orthogonalEdgeStyle;rounded=0;orthogonalLoop=1;jettySize=auto;html=1;entryX=0;entryY=0.5;entryDx=0;entryDy=0;startArrow=ERmandOne;startFill=0;endArrow=ERzeroToMany;endFill=0;" parent="1" source="lBhMCSIljEOEJ2BY_cxG-2" target="lBhMCSIljEOEJ2BY_cxG-10" edge="1">
                    <mxGeometry relative="1" as="geometry"/>
                </mxCell>
                <mxCell id="lBhMCSIljEOEJ2BY_cxG-14" value="CATEGORY&lt;br&gt;&lt;u&gt;Name&lt;br&gt;&lt;/u&gt;Order" style="rounded=0;whiteSpace=wrap;html=1;strokeColor=default;strokeWidth=1;" parent="1" vertex="1">
                    <mxGeometry x="582" y="293.5" width="120" height="114" as="geometry"/>
                </mxCell>
                <mxCell id="lBhMCSIljEOEJ2BY_cxG-16" value="&lt;u&gt;CatName&lt;/u&gt;" style="rounded=0;whiteSpace=wrap;html=1;strokeColor=default;strokeWidth=1;" parent="1" vertex="1">
                    <mxGeometry x="840" y="160" width="120" height="60" as="geometry"/>
                </mxCell>
                <mxCell id="lBhMCSIljEOEJ2BY_cxG-17" value="Order" style="rounded=0;whiteSpace=wrap;html=1;strokeColor=default;strokeWidth=1;" parent="1" vertex="1">
                    <mxGeometry x="960" y="160" width="120" height="60" as="geometry"/>
                </mxCell>
                <mxCell id="lBhMCSIljEOEJ2BY_cxG-18" value="Category" style="text;html=1;strokeColor=none;fillColor=none;align=center;verticalAlign=middle;whiteSpace=wrap;rounded=0;" parent="1" vertex="1">
                    <mxGeometry x="780" y="175" width="60" height="30" as="geometry"/>
                </mxCell>
                <mxCell id="lBhMCSIljEOEJ2BY_cxG-19" value="&lt;u&gt;FoodName&lt;/u&gt;" style="rounded=0;whiteSpace=wrap;html=1;strokeColor=default;strokeWidth=1;" parent="1" vertex="1">
                    <mxGeometry x="840" y="400" width="120" height="60" as="geometry"/>
                </mxCell>
                <mxCell id="lBhMCSIljEOEJ2BY_cxG-20" value="Description" style="rounded=0;whiteSpace=wrap;html=1;strokeColor=default;strokeWidth=1;" parent="1" vertex="1">
                    <mxGeometry x="960" y="400" width="120" height="60" as="geometry"/>
                </mxCell>
                <mxCell id="lBhMCSIljEOEJ2BY_cxG-21" value="BasePrice" style="rounded=0;whiteSpace=wrap;html=1;strokeColor=default;strokeWidth=1;" parent="1" vertex="1">
                    <mxGeometry x="1080" y="400" width="120" height="60" as="geometry"/>
                </mxCell>
                <mxCell id="lBhMCSIljEOEJ2BY_cxG-22" value="FoodItem" style="text;html=1;strokeColor=none;fillColor=none;align=center;verticalAlign=middle;whiteSpace=wrap;rounded=0;" parent="1" vertex="1">
                    <mxGeometry x="780" y="415" width="60" height="30" as="geometry"/>
                </mxCell>
                <mxCell id="lBhMCSIljEOEJ2BY_cxG-23" value="&lt;u&gt;OptionName&lt;/u&gt;" style="rounded=0;whiteSpace=wrap;html=1;strokeColor=default;strokeWidth=1;" parent="1" vertex="1">
                    <mxGeometry x="960" y="520" width="120" height="60" as="geometry"/>
                </mxCell>
                <mxCell id="lBhMCSIljEOEJ2BY_cxG-24" value="MinNum" style="rounded=0;whiteSpace=wrap;html=1;strokeColor=default;strokeWidth=1;" parent="1" vertex="1">
                    <mxGeometry x="1080" y="520" width="120" height="60" as="geometry"/>
                </mxCell>
                <mxCell id="lBhMCSIljEOEJ2BY_cxG-25" value="MaxNum" style="rounded=0;whiteSpace=wrap;html=1;strokeColor=default;strokeWidth=1;" parent="1" vertex="1">
                    <mxGeometry x="1200" y="520" width="120" height="60" as="geometry"/>
                </mxCell>
                <mxCell id="lBhMCSIljEOEJ2BY_cxG-26" value="Options" style="text;html=1;strokeColor=none;fillColor=none;align=center;verticalAlign=middle;whiteSpace=wrap;rounded=0;" parent="1" vertex="1">
                    <mxGeometry x="780" y="535" width="60" height="30" as="geometry"/>
                </mxCell>
                <mxCell id="lBhMCSIljEOEJ2BY_cxG-27" value="SubOptions" style="text;html=1;strokeColor=none;fillColor=none;align=center;verticalAlign=middle;whiteSpace=wrap;rounded=0;" parent="1" vertex="1">
                    <mxGeometry x="770" y="655" width="60" height="30" as="geometry"/>
                </mxCell>
                <mxCell id="lBhMCSIljEOEJ2BY_cxG-28" value="&lt;u&gt;SubOptionName&lt;/u&gt;" style="rounded=0;whiteSpace=wrap;html=1;strokeColor=default;strokeWidth=1;" parent="1" vertex="1">
                    <mxGeometry x="1080" y="640" width="120" height="60" as="geometry"/>
                </mxCell>
                <mxCell id="lBhMCSIljEOEJ2BY_cxG-29" value="Available" style="rounded=0;whiteSpace=wrap;html=1;strokeColor=default;strokeWidth=1;" parent="1" vertex="1">
                    <mxGeometry x="1200" y="640" width="120" height="60" as="geometry"/>
                </mxCell>
                <mxCell id="lBhMCSIljEOEJ2BY_cxG-30" value="Price" style="rounded=0;whiteSpace=wrap;html=1;strokeColor=default;strokeWidth=1;" parent="1" vertex="1">
                    <mxGeometry x="1320" y="640" width="120" height="60" as="geometry"/>
                </mxCell>
                <mxCell id="lBhMCSIljEOEJ2BY_cxG-35" style="edgeStyle=orthogonalEdgeStyle;rounded=0;orthogonalLoop=1;jettySize=auto;html=1;startArrow=none;startFill=0;endArrow=classic;endFill=1;" parent="1" source="lBhMCSIljEOEJ2BY_cxG-31" target="lBhMCSIljEOEJ2BY_cxG-19" edge="1">
                    <mxGeometry relative="1" as="geometry"/>
                </mxCell>
                <mxCell id="lBhMCSIljEOEJ2BY_cxG-31" value="&lt;u&gt;FoodName&lt;/u&gt;" style="rounded=0;whiteSpace=wrap;html=1;strokeColor=default;strokeWidth=1;" parent="1" vertex="1">
                    <mxGeometry x="840" y="280" width="120" height="60" as="geometry"/>
                </mxCell>
                <mxCell id="lBhMCSIljEOEJ2BY_cxG-32" value="RenderFoodItem" style="text;html=1;strokeColor=none;fillColor=none;align=center;verticalAlign=middle;whiteSpace=wrap;rounded=0;" parent="1" vertex="1">
                    <mxGeometry x="740" y="295" width="100" height="30" as="geometry"/>
                </mxCell>
                <mxCell id="lBhMCSIljEOEJ2BY_cxG-34" style="edgeStyle=orthogonalEdgeStyle;rounded=0;orthogonalLoop=1;jettySize=auto;html=1;entryX=0.5;entryY=1;entryDx=0;entryDy=0;startArrow=none;startFill=0;endArrow=classic;endFill=1;" parent="1" source="lBhMCSIljEOEJ2BY_cxG-33" target="lBhMCSIljEOEJ2BY_cxG-16" edge="1">
                    <mxGeometry relative="1" as="geometry"/>
                </mxCell>
                <mxCell id="lBhMCSIljEOEJ2BY_cxG-33" value="&lt;u&gt;CatName&lt;/u&gt;" style="rounded=0;whiteSpace=wrap;html=1;strokeColor=default;strokeWidth=1;" parent="1" vertex="1">
                    <mxGeometry x="960" y="280" width="120" height="60" as="geometry"/>
                </mxCell>
                <mxCell id="lBhMCSIljEOEJ2BY_cxG-37" style="edgeStyle=orthogonalEdgeStyle;rounded=0;orthogonalLoop=1;jettySize=auto;html=1;entryX=0.5;entryY=1;entryDx=0;entryDy=0;startArrow=none;startFill=0;endArrow=classic;endFill=1;" parent="1" source="lBhMCSIljEOEJ2BY_cxG-36" target="lBhMCSIljEOEJ2BY_cxG-19" edge="1">
                    <mxGeometry relative="1" as="geometry"/>
                </mxCell>
                <mxCell id="lBhMCSIljEOEJ2BY_cxG-36" value="&lt;u&gt;FoodName&lt;/u&gt;" style="rounded=0;whiteSpace=wrap;html=1;strokeColor=default;strokeWidth=1;" parent="1" vertex="1">
                    <mxGeometry x="840" y="520" width="120" height="60" as="geometry"/>
                </mxCell>
                <mxCell id="lBhMCSIljEOEJ2BY_cxG-45" style="edgeStyle=orthogonalEdgeStyle;rounded=0;orthogonalLoop=1;jettySize=auto;html=1;entryX=0.5;entryY=1;entryDx=0;entryDy=0;startArrow=none;startFill=0;endArrow=classic;endFill=1;" parent="1" source="lBhMCSIljEOEJ2BY_cxG-43" target="lBhMCSIljEOEJ2BY_cxG-23" edge="1">
                    <mxGeometry relative="1" as="geometry"/>
                </mxCell>
                <mxCell id="lBhMCSIljEOEJ2BY_cxG-43" value="&lt;u&gt;OptionName&lt;/u&gt;" style="rounded=0;whiteSpace=wrap;html=1;strokeColor=default;strokeWidth=1;" parent="1" vertex="1">
                    <mxGeometry x="960" y="640" width="120" height="60" as="geometry"/>
                </mxCell>
                <mxCell id="lBhMCSIljEOEJ2BY_cxG-46" style="edgeStyle=orthogonalEdgeStyle;rounded=0;orthogonalLoop=1;jettySize=auto;html=1;entryX=0.25;entryY=1;entryDx=0;entryDy=0;startArrow=none;startFill=0;endArrow=classic;endFill=1;exitX=0.25;exitY=0;exitDx=0;exitDy=0;jumpStyle=none;jumpSize=8;curved=1;" parent="1" source="lBhMCSIljEOEJ2BY_cxG-44" target="lBhMCSIljEOEJ2BY_cxG-19" edge="1">
                    <mxGeometry relative="1" as="geometry">
                        <Array as="points">
                            <mxPoint x="870" y="590"/>
                            <mxPoint x="860" y="590"/>
                            <mxPoint x="860" y="510"/>
                            <mxPoint x="870" y="510"/>
                        </Array>
                    </mxGeometry>
                </mxCell>
                <mxCell id="lBhMCSIljEOEJ2BY_cxG-44" value="&lt;u&gt;FoodName&lt;/u&gt;" style="rounded=0;whiteSpace=wrap;html=1;strokeColor=default;strokeWidth=1;" parent="1" vertex="1">
                    <mxGeometry x="840" y="640" width="120" height="60" as="geometry"/>
                </mxCell>
                <mxCell id="lBhMCSIljEOEJ2BY_cxG-47" value="Recommended, 1&lt;br&gt;Appetiser, 2&lt;br&gt;Main, 3&lt;br&gt;Dessert, 4&lt;br&gt;Drinks, 5" style="text;html=1;strokeColor=none;fillColor=none;align=left;verticalAlign=top;whiteSpace=wrap;rounded=0;" parent="1" vertex="1">
                    <mxGeometry x="1240" y="160" width="200" height="120" as="geometry"/>
                </mxCell>
                <mxCell id="lBhMCSIljEOEJ2BY_cxG-48" value="McSpicy, Recommended&lt;br&gt;McSpicy, Main&lt;br&gt;McFlurry, Dessert&lt;br&gt;Coke, Drink" style="text;html=1;strokeColor=none;fillColor=none;align=left;verticalAlign=top;whiteSpace=wrap;rounded=0;" parent="1" vertex="1">
                    <mxGeometry x="1240" y="280" width="200" height="120" as="geometry"/>
                </mxCell>
                <mxCell id="lBhMCSIljEOEJ2BY_cxG-49" value="McSpicy, &lt;i&gt;description&lt;/i&gt;, 7.10&lt;br&gt;McFlurry,&amp;nbsp;&lt;i&gt;description&lt;/i&gt;, 3.00&lt;br&gt;Coke, &lt;i&gt;description&lt;/i&gt;, 2.50" style="text;html=1;strokeColor=none;fillColor=none;align=left;verticalAlign=top;whiteSpace=wrap;rounded=0;" parent="1" vertex="1">
                    <mxGeometry x="1240" y="400" width="200" height="60" as="geometry"/>
                </mxCell>
                <mxCell id="lBhMCSIljEOEJ2BY_cxG-50" value="McSpicy, Sides, 1, 1&lt;br&gt;McSpicy, Drink, 1, 1&lt;br&gt;McFlurry, Topping, 0, 3" style="text;html=1;strokeColor=none;fillColor=none;align=left;verticalAlign=top;whiteSpace=wrap;rounded=0;" parent="1" vertex="1">
                    <mxGeometry x="1370" y="520" width="200" height="120" as="geometry"/>
                </mxCell>
                <mxCell id="lBhMCSIljEOEJ2BY_cxG-51" value="McSpicy, Sides, Large Fries, true, 0.80&lt;br&gt;McSpicy, Sides, Small Fries, true, 0.00&lt;br&gt;McSpicy, Drink, LargeCoke, true, 0.50&lt;br&gt;McSpicy, Drink, SmallCoke, true, 0.00&lt;br&gt;McFlurry, Topping, Chocolate Syrup, false, 0.00&lt;br&gt;McFlurry, Topping, Strawberry Syrup, true, 0.00&lt;br&gt;McFlurry, Topping, Rainbow Sprinkles, true, 0.00" style="text;html=1;strokeColor=none;fillColor=none;align=left;verticalAlign=top;whiteSpace=wrap;rounded=0;" parent="1" vertex="1">
                    <mxGeometry x="1480" y="640" width="280" height="120" as="geometry"/>
                </mxCell>
            </root>
        </mxGraphModel>
    </diagram>
</mxfile>